<svg width="512" height="512" viewBox="0 0 512 512" fill="none" xmlns="http://www.w3.org/2000/svg">
<g clip-path="url(#clip0_1362_314)">
<rect width="512" height="512" rx="113.778" fill="#222222"/>
<path d="M175.036 206.014C176.947 201.099 181.316 197.822 186.505 197.822H204.8C209.988 197.822 213.538 203.01 211.627 207.925C200.158 236.597 167.663 318.79 160.563 336.267C147.456 368.488 135.168 388.968 107.315 388.968C104.858 388.968 101.854 388.695 98.8503 388.149C95.3004 387.876 92.5698 384.599 92.5698 381.05V367.942C92.5698 364.119 95.5735 360.843 99.3964 360.57C113.869 360.023 122.061 351.285 129.707 328.075C127.795 323.432 90.1122 237.963 76.7319 208.198C74.5474 203.283 78.0972 197.822 83.5586 197.822H101.308C106.496 197.822 110.865 200.826 112.777 205.741L144.999 289.026L175.036 206.014ZM295.507 306.502C307.795 306.502 317.353 301.587 323.906 293.668C326.364 290.938 330.187 290.118 333.191 292.03L350.667 302.133C354.49 304.318 355.582 309.233 352.851 312.783C339.744 329.167 319.264 339.543 295.507 339.543C254.001 339.543 222.326 307.595 222.326 267.181C222.326 226.494 254.001 194.545 295.507 194.545C319.264 194.545 339.744 204.922 352.851 221.306C355.582 224.855 354.49 229.771 350.667 232.228L333.191 242.059C330.187 243.97 326.364 243.151 323.906 240.42C317.353 232.774 307.795 227.859 295.507 227.859C272.297 227.859 257.824 245.608 257.824 267.181C257.824 288.48 272.297 306.502 295.507 306.502Z" fill="white"/>
<path d="M394.362 299.403C405.284 299.403 414.296 308.414 414.296 319.61C414.296 330.805 405.284 339.816 394.362 339.816C383.166 339.816 374.155 330.805 374.155 319.61C374.155 308.414 383.166 299.403 394.362 299.403Z" fill="#FFA68A"/>
</g>
<defs>
<clipPath id="clip0_1362_314">
<rect width="512" height="512" fill="white"/>
</clipPath>
</defs>
</svg>
